#!OML:ASF G:\JayActor3\Patient Classification 1\Patient 1\Session 5\male.ASF
:FULLY-SPECIFIED
:DEGREES
1856
root -29.7873 16.6783 -24.6825 -187.638 -62.537 183.419
lowerback 4.72592 -1.32892 5.9351
upperback 4.78506 -1.84213 1.55096
thorax 2.17579 -0.869449 -1.6725
lowerneck -8.02642 -0.795337 2.20357
upperneck 26.3328 -1.64113 -3.80534
head 9.55699 -1.35576 -1.93773
rclavicle -9.0447e-015 1.90833e-014
rhumerus -27.0388 1.77887 -87.8648
rradius 32.547
rwrist -1.83062
rhand -22.5693 -13.2188
rfingers 7.12502
rthumb 3.85901 -43.1636
lclavicle -9.0447e-015 1.90833e-014
lhumerus -22.9967 -10.563 94.427
lradius 34.6097
lwrist 20.8641
lhand -19.0112 12.2072
lfingers 7.12502
lthumb 7.29433 42.0615
rfemur -11.4466 -4.01937 24.82
rtibia 37.1944
rfoot -19.6361 12.9582
rtoes 6.98572
lfemur -6.49172 7.78941 -19.3114
ltibia 30.2623
lfoot -19.2097 5.36446
ltoes -4.58288
1857
root -29.8052 16.6764 -24.6987 -187.718 -62.5358 183.516
lowerback 4.70601 -1.44195 5.84763
upperback 4.74696 -1.99522 1.61427
thorax 2.14038 -0.950869 -1.55355
lowerneck -7.83101 -1.23596 1.63743
upperneck 25.9763 -2.24201 -3.43958
head 9.38513 -1.64444 -1.76172
rclavicle 4.32357e-014 -7.95139e-015
rhumerus -26.9789 1.9757 -87.915
rradius 32.5586
rwrist -1.81025
rhand -22.6722 -13.2053
rfingers 7.12502
rthumb 3.75969 -43.1519
lclavicle 4.32357e-014 -7.95139e-015
lhumerus -23.0699 -9.94444 94.3485
lradius 34.1737
lwrist 20.586
lhand -18.9785 12.2098
lfingers 7.12502
lthumb 7.32591 42.0629
rfemur -11.3615 -3.9604 24.8972
rtibia 37.1897
rfoot -19.6326 12.9112
rtoes 7.06804
lfemur -6.32024 7.64509 -19.2684
ltibia 30.1797
lfoot -19.1442 5.55614
ltoes -3.73951
1858
root -29.8236 16.6748 -24.7145 -187.86 -62.547 183.676
lowerback 4.66912 -1.56 5.78682
upperback 4.71908 -2.15667 1.67804
thorax 2.12479 -1.03525 -1.44935
lowerneck -7.60952 -1.69961 1.0367
upperneck 25.5815 -2.88098 -3.01722
head 9.20337 -1.94762 -1.56268
rclavicle 2.14687e-014 9.54166e-015
rhumerus -26.9103 2.15125 -87.9707
rradius 32.5211
rwrist -1.77463
rhand -22.7831 -13.1792
rfingers 7.12502
rthumb 3.65258 -43.1276
lclavicle 2.14687e-014 9.54166e-015
lhumerus -23.1313 -9.34199 94.2537
lradius 33.6938
lwrist 20.3524
lhand -18.9591 12.2276
lfingers 7.12502
lthumb 7.34458 42.0801
rfemur -11.2571 -3.88966 25.0089
rtibia 37.1718
rfoot -19.6528 12.8052
rtoes 7.12055
lfemur -6.14151 7.53039 -19.1854
ltibia 30.1077
lfoot -19.1575 5.6251
ltoes -3.06217
1859
root -29.8426 16.6737 -24.7298 -188.03 -62.5752 183.869
lowerback 4.60972 -1.67525 5.74396
upperback 4.69816 -2.31595 1.73561
thorax 2.12915 -1.11731 -1.36253
lowerneck -7.3479 -2.18636 0.443575
upperneck 25.1402 -3.55795 -2.56666
head 9.0065 -2.26456 -1.35724
rclavicle -6.95746e-014 3.57812e-014
rhumerus -26.8379 2.28064 -88.0262
rradius 32.4391
rwrist -1.7235
rhand -22.8865 -13.1484
rfingers 7.12502
rthumb 3.55275 -43.0986
lclavicle -6.95746e-014 3.57812e-014
lhumerus -23.181 -8.78931 94.1486
lradius 33.1652
lwrist 20.1585
lhand -18.9455 12.25
lfingers 7.12502
lthumb 7.35772 42.1021
rfemur -11.1427 -3.82251 25.1384
rtibia 37.1399
rfoot -19.6804 12.6568
rtoes 7.09764
lfemur -5.97112 7.45121 -19.0792
ltibia 30.0373
lfoot -19.1775 5.62917
ltoes -2.44147
1860
root -29.862 16.6734 -24.7448 -188.204 -62.6168 184.071
lowerback 4.53913 -1.78397 5.71953
upperback 4.67615 -2.4657 1.77193
thorax 2.13828 -1.1933 -1.30867
lowerneck -7.06063 -2.6927 -0.114487
upperneck 24.6759 -4.27227 -2.09279
head 8.80581 -2.59396 -1.15243
rclavicle -1.49089e-015 -4.77083e-015
rhumerus -26.7735 2.33263 -88.0934
rradius 32.3186
rwrist -1.64045
rhand -22.9743 -13.0953
rfingers 7.12502
rthumb 3.46788 -43.0468
lclavicle -1.49089e-015 -4.77083e-015
lhumerus -23.2288 -8.23815 94.0102
lradius 32.596
lwrist 19.941
lhand -18.9284 12.2597
lfingers 7.12502
lthumb 7.37428 42.1111
rfemur -11.0226 -3.74658 25.277
rtibia 37.094
rfoot -19.7178 12.4561
rtoes 7.05739
lfemur -5.81397 7.42087 -18.9593
ltibia 29.9649
lfoot -19.1833 5.61475
ltoes -1.90357
1861
root -29.8814 16.6741 -24.7599 -188.351 -62.6556 184.258
lowerback 4.45358 -1.88115 5.69121
upperback 4.65146 -2.6 1.791
thorax 2.15357 -1.26085 -1.2716
lowerneck -6.74497 -3.21076 -0.637042
upperneck 24.1857 -5.0106 -1.60228
head 8.60012 -2.93083 -0.949025
rclavicle -3.70733e-014 -3.18055e-015
rhumerus -26.7152 2.31584 -88.1675
rradius 32.1655
rwrist -1.52619
rhand -23.035 -13.0191
rfingers 7.12502
rthumb 3.40929 -42.9716
lclavicle -3.70733e-014 -3.18055e-015
lhumerus -23.2713 -7.66871 93.8406
lradius 31.9845
lwrist 19.6813
lhand -18.9053 12.2627
lfingers 7.12502
lthumb 7.39659 42.1134
rfemur -10.9124 -3.63144 25.4206
rtibia 37.0384
rfoot -19.7693 12.2015
rtoes 6.98585
lfemur -5.6791 7.43467 -18.8381
ltibia 29.8872
lfoot -19.1632 5.60843
ltoes -1.45575
1862
root -29.9 16.6757 -24.7754 -188.452 -62.6726 184.415
lowerback 4.36107 -1.96317 5.64081
upperback 4.62176 -2.71394 1.80079
thorax 2.16933 -1.3184 -1.23286
lowerneck -6.42087 -3.73075 -1.11492
upperneck 23.6781 -5.75335 -1.12247
head 8.39514 -3.26825 -0.756403
rclavicle 6.36111e-015 -1.35174e-014
rhumerus -26.6592 2.24644 -88.2409
rradius 31.9843
rwrist -1.38598
rhand -23.0614 -12.9324
rfingers 7.12502
rthumb 3.38376 -42.8853
lclavicle 6.36111e-015 -1.35174e-014
lhumerus -23.3073 -7.06019 93.6438
lradius 31.3386
lwrist 19.3715
lhand -18.8889 12.2485
lfingers 7.12502
lthumb 7.41242 42.0986
rfemur -10.8266 -3.45147 25.5679
rtibia 36.9781
rfoot -19.833 11.9009
rtoes 6.84013
lfemur -5.57272 7.48026 -18.7246
ltibia 29.8043
lfoot -19.1192 5.60553
ltoes -1.07106
1863
root -29.9175 16.6785 -24.7907 -188.466 -62.6602 184.504
lowerback 4.26252 -2.03335 5.5455
upperback 4.58029 -2.81171 1.80464
thorax 2.17878 -1.36883 -1.17605
lowerneck -6.0734 -4.24083 -1.56744
upperneck 23.1512 -6.48246 -0.649433
head 8.18755 -3.59965 -0.56781
rclavicle -4.34344e-014 4.6118e-014
rhumerus -26.6143 2.15389 -88.311
rradius 31.7843
rwrist -1.22836
rhand -23.0476 -12.8496
rfingers 7.12502
rthumb 3.39712 -42.8023
lclavicle -4.34344e-014 4.6118e-014
lhumerus -23.3463 -6.37926 93.4222
lradius 30.6655
lwrist 19.0025
lhand -18.8688 12.2293
lfingers 7.12502
lthumb 7.43181 42.0787
rfemur -10.7827 -3.20834 25.6994
rtibia 36.9207
rfoot -19.8987 11.5707
rtoes 6.61242
lfemur -5.50243 7.5338 -18.6452
ltibia 29.7145
lfoot -19.0564 5.61001
ltoes -0.974343
1864
root -29.9334 16.6822 -24.806 -188.395 -62.6022 184.523
lowerback 4.17081 -2.08762 5.40565
upperback 4.52754 -2.88708 1.80386
thorax 2.17583 -1.40927 -1.09962
lowerneck -5.71672 -4.7375 -1.98677
upperneck 22.6105 -7.19085 -0.195516
head 7.98033 -3.92217 -0.38836
rclavicle -3.65764e-014 2.54444e-014
rhumerus -26.5803 2.04385 -88.3774
rradius 31.5704
rwrist -1.06334
rhand -22.9989 -12.7817
rfingers 7.12502
rthumb 3.44417 -42.7336
lclavicle -3.65764e-014 2.54444e-014
lhumerus -23.3905 -5.63301 93.1767
lradius 29.9752
lwrist 18.5857
lhand -18.8519 12.2349
lfingers 7.12502
lthumb 7.44813 42.0838
rfemur -10.7807 -2.89474 25.8144
rtibia 36.8731
rfoot -19.9986 11.2154
rtoes 6.32147
lfemur -5.45979 7.5886 -18.6023
ltibia 29.6173
lfoot -18.9843 5.63935
ltoes -1.13248
1865
root -29.9474 16.6868 -24.8209 -188.229 -62.4927 184.465
lowerback 4.09269 -2.12684 5.21918
upperback 4.45753 -2.94015 1.79755
thorax 2.15054 -1.43993 -1.00282
lowerneck -5.35721 -5.21393 -2.37196
upperneck 22.0706 -7.86987 0.237369
head 7.77833 -4.23211 -0.21851
rclavicle -4.52235e-014 1.66979e-014
rhumerus -26.5641 1.93286 -88.4457
rradius 31.3455
rwrist -0.899609
rhand -22.9241 -12.7358
rfingers 7.12502
rthumb 3.51639 -42.6866
lclavicle -4.52235e-014 1.66979e-014
lhumerus -23.4505 -4.83713 92.9071
lradius 29.2722
lwrist 18.1402
lhand -18.8479 12.2477
lfingers 7.12502
lthumb 7.452 42.0964
rfemur -10.8308 -2.52056 25.908
rtibia 36.8426
rfoot -20.1163 10.8489
rtoes 6.02861
lfemur -5.44663 7.63524 -18.6021
ltibia 29.5085
lfoot -18.9148 5.71986
ltoes -1.48284
